# xmcd
#
# Track frame offsets: 
#        150
#        20760
#        40039
#        62482
#        82655
#        99312
#        120717
#        143380
#        163080
#        181605
#
# Disc length: 2625 seconds
#
# Revision: 0
# Processed by: cddbd v1.5.2PL0 Copyright (c) Steve Scherf et al.
# Submitted via: ExactAudioCopyFreeDBPlugin 1.0
#
DISCID=6b0a3f0a
DTITLE=แอ๊ด คาราบาว - ชุด 05 World Folk Zen
DYEAR=1900
DGENRE=Thai
TTITLE0=ยืนยงอย่างเนลยัง
TTITLE1=บ้า
TTITLE2=World
TTITLE3=ฝนดิน
TTITLE4=เพื่อเมืองไทย
TTITLE5=ศรอรชุน
TTITLE6=หลวงพ่อประจักษ์
TTITLE7=แสงดาว
TTITLE8=ประตูหลัง
TTITLE9=บรรพบุรุษชาวนา
EXTD=
EXTT0=
EXTT1=
EXTT2=
EXTT3=
EXTT4=
EXTT5=
EXTT6=
EXTT7=
EXTT8=
EXTT9=
PLAYORDER=
